<svg width="19" height="19" viewBox="0 0 19 19" fill="none" xmlns="http://www.w3.org/2000/svg">
<g clip-path="url(#clip0)">
<path d="M15.766 10.314C15.4589 9.92608 15.5468 9.7535 15.766 9.40675C15.77 9.40279 18.3057 5.89887 18.567 4.71058L18.5685 4.70979C18.6984 4.27675 18.5685 3.9585 17.9408 3.9585H15.8634C15.3346 3.9585 15.0908 4.23162 14.9601 4.5372C14.9601 4.5372 13.9025 7.06895 12.4062 8.71008C11.9233 9.18429 11.7 9.33629 11.4364 9.33629C11.3066 9.33629 11.1047 9.18429 11.1047 8.75125V4.70979C11.1047 4.19045 10.9567 3.9585 10.5189 3.9585H7.25246C6.92075 3.9585 6.72363 4.20075 6.72363 4.42637C6.72363 4.91879 7.47175 5.032 7.54933 6.41741V9.42337C7.54933 10.082 7.42979 10.2032 7.16458 10.2032C6.45842 10.2032 4.74446 7.66112 3.72875 4.75175C3.52371 4.18729 3.32342 3.95929 2.79063 3.95929H0.7125C0.119542 3.95929 0 4.23241 0 4.538C0 5.07791 0.706167 7.76245 3.28383 11.3091C5.00175 13.73 7.42108 15.0418 9.62192 15.0418C10.9448 15.0418 11.1063 14.7505 11.1063 14.2494C11.1063 11.9361 10.9868 11.7176 11.6494 11.7176C11.9565 11.7176 12.4854 11.8696 13.7204 13.0373C15.1319 14.422 15.3639 15.0418 16.154 15.0418H18.2313C18.8235 15.0418 19.1235 14.7505 18.9509 14.1757C18.5559 12.9669 15.8864 10.4802 15.766 10.314Z" fill="#FF6D75"/>
</g>
<defs>
<clipPath id="clip0">
<rect width="19" height="19" fill="white"/>
</clipPath>
</defs>
</svg>
