<svg width="48" height="27" viewBox="0 0 48 27" fill="none" xmlns="http://www.w3.org/2000/svg">
<path d="M0.26 0.799998V19.988C0.26 24.02 2.276 26.324 6.164 26.324C10.052 26.324 12.068 24.02 12.068 19.988V0.799998H8.324V20.24C8.324 22.04 7.532 22.688 6.272 22.688C5.012 22.688 4.22 22.04 4.22 20.24V0.799998H0.26ZM20.2558 0.799998H14.7478V26H18.2038V8.18L21.1558 26H24.8998L27.6358 7.928V26H31.3798V0.799998H25.8718L23.1718 18.692L20.2558 0.799998ZM43.0443 0.799998H37.2483L33.2163 26H36.8523L37.5363 21.428H42.3963L43.0803 26H47.0763L43.0443 0.799998ZM39.9483 5.264L41.8563 18.008H38.0403L39.9483 5.264Z" fill="url(#paint0_linear)"/>
<defs>
<linearGradient id="paint0_linear" x1="-1" y1="-1" x2="83.0538" y2="-1" gradientUnits="userSpaceOnUse">
<stop stop-color="#FEAA6E"/>
<stop offset="0.932292" stop-color="#FF7175"/>
<stop offset="1" stop-color="#FF6D75"/>
</linearGradient>
</defs>
</svg>
